<svg width="18" height="18" viewBox="0 0 18 18" fill="none" xmlns="http://www.w3.org/2000/svg">
<circle cx="9" cy="9" r="9" fill="#828282"/>
<path fill-rule="evenodd" clip-rule="evenodd" d="M8.0364 5.19995C6.8976 5.19995 5.9828 6.11435 5.9828 7.25355C5.9828 8.39275 6.8972 9.30755 8.0364 9.30755C9.176 9.30755 10.0904 8.39275 10.0904 7.25355C10.0904 6.11435 9.176 5.19995 8.0364 5.19995ZM8.0364 5.79995C8.8444 5.79995 9.4904 6.44595 9.4904 7.25355C9.4904 8.06155 8.8444 8.70755 8.0364 8.70755C7.2284 8.70755 6.5828 8.06155 6.5828 7.25355C6.5828 6.44555 7.2288 5.79995 8.0364 5.79995ZM12.2268 7.24635C12.2268 6.35275 11.502 5.62755 10.608 5.62755C10.4424 5.62755 10.308 5.76195 10.308 5.92755C10.308 6.09355 10.4424 6.22755 10.608 6.22755C11.1708 6.22755 11.6268 6.68395 11.6268 7.24635C11.6268 7.80915 11.1708 8.26515 10.608 8.26515C10.4424 8.26515 10.308 8.39955 10.308 8.56515C10.308 8.73115 10.4424 8.86515 10.608 8.86515C11.502 8.86515 12.2268 8.14075 12.2268 7.24635ZM11.9196 9.79755C11.698 9.74835 11.4672 9.71515 11.2348 9.69915C11.0696 9.68795 10.9268 9.81275 10.9152 9.97795C10.904 10.1436 11.0288 10.2868 11.194 10.298C11.3964 10.3116 11.5976 10.3408 11.7964 10.3848C12.1072 10.4464 12.3128 10.5492 12.3684 10.666C12.4104 10.754 12.4104 10.858 12.3684 10.946C12.3132 11.0624 12.1084 11.1652 11.8008 11.2284C11.6384 11.2616 11.534 11.4204 11.5676 11.5824C11.6008 11.7448 11.7596 11.8496 11.9216 11.816C12.3996 11.7176 12.7496 11.5424 12.9104 11.204C13.0296 10.952 13.0296 10.66 12.9104 10.408C12.7484 10.0684 12.3952 9.89195 11.9196 9.79755ZM5 11.4072C5 10.3576 6.1032 9.98235 8.0364 9.98235L8.1644 9.98315C10.0224 9.99915 11.0732 10.3744 11.0732 11.3992C11.0732 12.4024 10.066 12.7896 8.2892 12.822L8.0364 12.824C6.0988 12.824 5.0004 12.456 5.0004 11.4072H5ZM10.4732 11.3992C10.4732 10.8604 9.6452 10.5824 8.0364 10.5824C6.4296 10.5824 5.6004 10.8644 5.6004 11.4072C5.6004 11.9468 6.4276 12.224 8.0364 12.224C9.6436 12.224 10.4732 11.942 10.4732 11.3992Z" fill="#BDBDBD"/>
</svg>
