<svg width="16" height="16" viewBox="0 0 16 16" fill="none" xmlns="http://www.w3.org/2000/svg">
<path d="M7.84065 13.9026C6.39398 13.012 5.04732 11.964 3.82598 10.7766C2.96732 9.92198 2.31398 8.87998 1.91532 7.72998C1.19798 5.49998 2.03532 2.94731 4.38065 2.19198C5.61332 1.79464 6.95865 2.02198 7.99732 2.80064C9.03598 2.02264 10.3813 1.79598 11.614 2.19198C13.9586 2.94731 14.8026 5.49998 14.0853 7.72998C13.6866 8.87998 13.0333 9.92198 12.1746 10.7766C10.9533 11.9633 9.60732 13.012 8.15998 13.9026L8.00332 14L7.84065 13.9026V13.9026Z" stroke="white" stroke-width="1.5" stroke-linecap="round" stroke-linejoin="round"/>
<path d="M10.4933 4.70203C11.2033 4.92869 11.7073 5.56669 11.7706 6.31669" stroke="white" stroke-width="1.5" stroke-linecap="round" stroke-linejoin="round"/>
</svg>
